<svg width="1079" height="241" viewBox="0 0 1079 241" fill="none" xmlns="http://www.w3.org/2000/svg">
<path d="M61.7402 125.541C62.0605 125.741 62.2207 125.961 62.2207 126.202C62.2207 126.442 62.1807 126.682 62.1006 126.922C60.4189 129.925 59.0176 133.008 57.8965 136.171C56.8154 139.334 55.7144 142.478 54.5933 145.601C54.313 146.361 53.8125 146.742 53.0918 146.742C52.7715 146.742 52.4512 146.682 52.1309 146.562C51.8105 146.441 51.3701 146.261 50.8096 146.021L11.4111 123.079C10.1299 122.438 9.26904 121.917 8.82861 121.517C8.38818 121.117 8.16797 120.516 8.16797 119.715C8.04785 116.672 7.90771 113.589 7.74756 110.466C7.5874 107.343 7.32715 104.1 6.9668 100.737C6.9668 100.657 6.94678 100.597 6.90674 100.557C6.90674 100.517 6.90674 100.477 6.90674 100.437L6.9668 100.016C7.00684 99.8159 7.10693 99.6558 7.26709 99.5356C7.42725 99.3755 7.56738 99.2954 7.6875 99.2954C9.00879 98.6548 10.7104 97.9141 12.7925 97.0732C14.9146 96.1924 17.2769 95.2515 19.8794 94.2505C22.4819 93.2095 25.2646 92.1484 28.2275 91.0674C31.2305 89.9463 34.2734 88.8052 37.3564 87.644C40.4795 86.4829 43.5825 85.3418 46.6655 84.2207C49.7485 83.0596 52.6914 81.9385 55.4941 80.8574C56.7354 80.4971 57.6362 80.3169 58.1968 80.3169C58.7173 80.3169 59.0376 80.6372 59.1577 81.2778C59.3979 84.3608 59.6582 87.604 59.9385 91.0073C60.2588 94.3706 60.7793 97.5537 61.5 100.557C61.5 101.438 61.2598 101.898 60.7793 101.938L34.3535 111.667C34.7939 111.908 35.6748 112.368 36.9961 113.049C38.3574 113.729 39.939 114.53 41.7407 115.451C43.5425 116.332 45.4644 117.293 47.5063 118.334C49.5483 119.375 51.5103 120.376 53.3921 121.337C55.2739 122.258 56.9556 123.099 58.437 123.859C59.9585 124.62 61.0596 125.181 61.7402 125.541ZM72.813 126.308C69.6592 119.538 68.1207 112.423 68.1977 104.962C68.3515 97.8846 69.7746 91.3077 72.4669 85.2308C75.1592 79 78.7361 74.1923 83.1977 70.8077C88.1207 67.1923 93.4669 65.8077 99.2361 66.6538C105.621 67.5 112.159 71.0385 118.852 77.2692L113.544 84.3077L108.121 91.3462C101.505 86.8846 96.1592 86.5769 92.0823 90.4231C88.5438 93.6538 86.8515 98.7692 87.0054 105.769C87.39 112.615 89.313 117.615 92.7746 120.769C96.8515 124.615 102.082 124.154 108.467 119.385L118.505 132.192C113.275 139.192 107.467 143.308 101.082 144.538C95.5438 145.615 90.1207 144.346 84.813 140.731C79.813 137.423 75.813 132.615 72.813 126.308ZM127.817 80.8462C133.74 71.6154 141.586 67 151.355 67C159.74 67 166.701 70.8077 172.24 78.4231C175.317 82.5769 177.432 86.8846 178.586 91.3462C179.74 95.8077 180.24 100.692 180.086 106C179.778 115 177.086 123.308 172.009 130.923C166.009 140.231 158.163 144.885 148.47 144.885C139.932 144.885 132.932 141 127.47 133.231C124.855 129.923 122.855 125.846 121.47 121C120.24 116.231 119.74 111.231 119.97 106C120.432 96.7692 123.047 88.3846 127.817 80.8462ZM158.74 94C156.817 89.3846 154.201 87.0769 150.894 87.0769C147.047 87.0769 144.009 89.9615 141.778 95.7308C140.009 100.115 138.932 104.615 138.547 109.231C138.47 111.462 138.778 113.538 139.47 115.462C140.163 118.385 141.317 120.538 142.932 121.923C144.778 123.615 147.124 124.462 149.97 124.462C153.894 124.462 156.855 122.731 158.855 119.269C160.47 116.346 161.317 112.654 161.394 108.192C161.47 103.269 160.586 98.5385 158.74 94ZM184.502 70.6923C193.733 68.9231 201.733 68.3462 208.502 68.9615C216.349 69.6538 222.579 71.8077 227.195 75.4231C233.887 80.6538 237.964 86.5769 239.426 93.1923C239.964 95.8077 240.156 98.3846 240.002 100.923C239.618 106.615 238.195 111.808 235.733 116.5C232.964 121.962 228.733 126.846 223.041 131.154C219.887 133.769 216.426 135.923 212.656 137.615C204.579 141.538 195.464 143.577 185.31 143.731H185.079L184.733 83.0385C184.579 75.7308 184.502 71.6154 184.502 70.6923ZM204.349 106.692C204.272 112.077 204.349 117.115 204.579 121.808C209.81 119.808 213.887 116.615 216.81 112.231C219.426 108 220.502 103.731 220.041 99.4231C219.502 95.6538 217.772 92.8462 214.849 91C212.31 89.3846 209.118 88.6923 205.272 88.9231C204.733 95.7692 204.426 101.692 204.349 106.692ZM276.764 86.2692C272.995 86.7308 269.379 87.1538 265.918 87.5385C265.687 89.9231 265.533 91.6538 265.456 92.7308L265.11 97.8077L273.764 96.5385L282.302 94.9231L283.11 102.077L284.149 109.346C278.456 110.269 274.764 110.846 273.072 111.077C270.072 111.615 267.418 112.077 265.11 112.462L264.879 122.038L276.533 120.423L288.072 118.808L289.341 128.269L290.495 137.731C284.495 138.115 277.764 138.885 270.302 140.038C262.764 141.346 254.456 142.962 245.379 144.885C245.302 140.731 245.225 134.654 245.149 126.654L244.918 108.077C244.764 91.9231 244.649 79.6923 244.572 71.3846L265.225 68.9615L285.995 66.5385L287.264 75.8846L288.533 85.3462C284.379 85.6538 280.456 85.9615 276.764 86.2692ZM366.259 75.9692C360.085 95.2103 355.418 116.964 352.259 141.231L332.767 145.323L328.675 114.092L324.475 143.923L306.921 145C304.265 123.39 299.454 101.313 292.49 78.7692L311.552 74.7846L317.475 107.631L321.459 72.6308L337.29 71.3385L341.921 109.785L347.736 72.0923L366.259 75.9692ZM374.873 76.0769L384.888 74.4615L394.688 72.9539C393.396 85.8051 392.642 97.759 392.427 108.815C392.211 119.872 392.463 130.031 393.181 139.292L384.134 141.662L374.981 143.708L374.873 76.0769ZM456.096 90.1846C447.767 90.6154 441.773 90.9744 438.111 91.2615C437.537 99.0872 438.434 115.959 440.803 141.877L419.803 146.185L419.696 92.9846C418.619 93.0564 416.178 93.3436 412.373 93.8462C408.926 94.2769 406.091 94.6 403.865 94.8154L405.157 76.4L452.973 71.8769L456.096 90.1846ZM485.172 72.8462C483.88 85.4821 483.126 96.3231 482.911 105.369L492.388 103.754L492.172 75.9692L513.603 72.8462C511.09 99.4103 510.659 121.954 512.311 140.477L492.495 145L492.388 118.292C490.234 118.723 487.003 119.333 482.695 120.123C482.911 128.092 483.305 134.877 483.88 140.477L464.28 145L463.849 75.9692L485.172 72.8462ZM524.098 71.0385L545.444 67.6923C544.752 73.6923 544.367 78.4615 544.29 82C550.521 76.9231 556.175 71.9231 561.252 67L579.367 75.4231L558.021 93.1923L581.328 135.077L560.328 144.885L542.905 106.231C542.675 117.385 542.905 128.231 543.598 138.769L524.559 143.5L524.098 71.0385ZM601.918 91.6923L601.572 99.0769C604.264 97.8462 606.841 96.3077 609.303 94.4615C613.38 91.3077 615.187 88.5769 614.726 86.2692C614.341 84.5769 612.957 83.6538 610.572 83.5C608.495 83.4231 605.726 83.7692 602.264 84.5385C602.033 87.0769 601.918 89.4615 601.918 91.6923ZM614.495 66.0769C626.187 66.0769 632.918 70.5769 634.687 79.5769C635.533 90.3462 630.533 99.1923 619.687 106.115C621.38 108.731 627.687 116.577 638.61 129.654C634.149 133.654 628.457 138.615 621.533 144.538L601.572 115.462C601.495 124.769 601.764 133.231 602.38 140.846L583.341 145.692C584.418 108.692 584.264 83.8462 582.88 71.1538C595.572 67.7692 606.11 66.0769 614.495 66.0769ZM642.567 71.1538L653.297 69.4231L663.797 67.8077C662.413 81.5769 661.605 94.3846 661.374 106.231C661.144 118.077 661.413 128.962 662.182 138.885L652.49 141.423L642.682 143.615L642.567 71.1538ZM722.379 80.8462C722.841 83.2308 723.226 85.9231 723.533 88.9231C721.687 89.5385 718.687 90.5385 714.533 91.9231L705.533 94.8077C704.918 91.6538 703.379 90.0769 700.918 90.0769C697.918 90.0769 695.11 91.4615 692.495 94.2308C690.802 96.4615 690.302 98.5385 690.995 100.462C691.533 101.692 693.379 102.308 696.533 102.308C698.149 102.308 700.11 102.115 702.418 101.731C706.11 101.115 709.418 100.808 712.341 100.808C719.418 100.808 723.956 102.808 725.956 106.808C726.649 108.038 727.187 109.346 727.572 110.731C728.495 115.038 727.379 119.731 724.226 124.808C720.456 131.5 714.264 137.077 705.649 141.538C701.264 143.923 696.61 145.115 691.687 145.115C687.226 145.115 682.649 144.154 677.956 142.231C679.11 138.077 681.226 131.962 684.302 123.885C687.379 125.577 690.418 126.423 693.418 126.423C694.726 126.423 696.11 126.154 697.572 125.615C700.11 125.154 702.456 124.385 704.61 123.308C707.533 121.923 708.841 120.462 708.533 118.923C708.226 117.077 706.302 116.154 702.764 116.154C700.456 116.154 697.11 116.538 692.726 117.308C688.341 118.308 684.956 118.808 682.572 118.808C679.418 118.808 676.956 118.231 675.187 117.077C671.341 115.385 669.341 112.615 669.187 108.769C668.572 101.308 672.649 92.5769 681.418 82.5769C690.418 72.3462 698.995 67 707.149 66.5385C715.149 66.1538 720.226 70.9231 722.379 80.8462ZM754.492 67.6923C753.108 81.2308 752.3 92.8462 752.069 102.538L762.223 100.808L761.992 71.0385L784.954 67.6923C782.262 96.1538 781.8 120.308 783.569 140.154L762.339 145L762.223 116.385C759.915 116.846 756.454 117.5 751.839 118.346C752.069 126.885 752.492 134.154 753.108 140.154L732.108 145L731.646 71.0385L754.492 67.6923ZM791.74 69.0769L812.97 65.5C813.278 67.7308 813.855 70.8077 814.701 74.7308C816.932 84.1154 819.124 92.2692 821.278 99.1923C822.586 103.269 823.97 106.462 825.432 108.769V68.9615L846.778 65.5C843.855 93.1154 843.24 116.885 844.932 136.808L825.663 141.423C825.586 141.115 824.74 139.885 823.124 137.731L813.201 122.615C811.586 120.231 810.586 118.615 810.201 117.769C810.201 126.077 810.509 133.962 811.124 141.423L791.855 146.154L791.74 69.0769ZM849.486 140.731C856.717 117.115 862.178 93.6154 865.871 70.2308L893.447 66.4231C896.601 87.3462 902.447 111.538 910.986 139L889.986 143.846L887.217 130.923L873.486 132.423L871.063 145.462L849.486 140.731ZM884.217 117.308L879.486 89.8462L874.871 117.423L884.217 117.308ZM991.742 68.7308L1011.93 73.4615C989.242 101.077 970.896 125.846 956.896 147.769L937.396 145L991.742 68.7308ZM1020.35 124.275C1021.08 123.892 1022.23 123.295 1023.81 122.484C1025.43 121.674 1027.24 120.779 1029.24 119.798C1031.25 118.774 1033.34 117.708 1035.51 116.6C1037.69 115.491 1039.73 114.467 1041.65 113.529C1043.57 112.549 1045.24 111.696 1046.64 110.971C1048.09 110.246 1049.05 109.755 1049.52 109.5L1021.38 99.1372C1020.86 99.0946 1020.61 98.6042 1020.61 97.666C1021.38 94.4678 1021.91 91.0776 1022.21 87.4956C1022.55 83.8709 1022.85 80.4168 1023.1 77.1333C1023.23 76.451 1023.57 76.1099 1024.13 76.1099C1024.68 76.1099 1025.64 76.3018 1027.01 76.6855C1029.99 77.8369 1033.12 79.0309 1036.41 80.2676C1039.69 81.4616 1042.98 82.6769 1046.26 83.9136C1049.59 85.1502 1052.83 86.3656 1055.98 87.5596C1059.18 88.7109 1062.16 89.841 1064.94 90.9497C1067.71 92.0158 1070.2 93.0179 1072.42 93.9561C1074.68 94.8516 1076.51 95.6405 1077.92 96.3228C1078.05 96.3228 1078.2 96.408 1078.37 96.5786C1078.54 96.7065 1078.65 96.8771 1078.69 97.0903L1078.75 97.5381C1078.75 97.5807 1078.73 97.6234 1078.69 97.666C1078.69 97.7087 1078.69 97.7726 1078.69 97.8579C1078.31 101.44 1078.03 104.894 1077.86 108.22C1077.69 111.546 1077.54 114.83 1077.41 118.071C1077.41 118.924 1077.18 119.563 1076.71 119.99C1076.24 120.416 1075.32 120.971 1073.96 121.653L1031.99 146.087C1031.4 146.343 1030.93 146.535 1030.59 146.663C1030.25 146.791 1029.91 146.855 1029.56 146.855C1029.09 146.855 1028.75 146.748 1028.54 146.535C1028.33 146.365 1028.14 146.066 1027.96 145.64C1026.73 142.313 1025.49 138.966 1024.25 135.597C1023.06 132.228 1021.63 128.945 1019.97 125.747C1019.88 125.491 1019.84 125.235 1019.84 124.979C1019.84 124.808 1019.86 124.681 1019.91 124.595C1019.99 124.467 1020.14 124.361 1020.35 124.275Z" fill="#5001CF"/>
<path d="M369.935 220.83C369.557 220.83 369.179 220.821 368.802 220.802C368.424 220.783 368.047 220.773 367.669 220.773C365.196 220.773 362.788 220.943 360.447 221.283C358.106 221.642 355.812 222.208 353.565 222.982C353.528 222.435 353.509 221.868 353.509 221.283C353.509 220.717 353.509 220.16 353.509 219.612C353.509 214.213 353.868 209.039 354.585 204.093C355.321 199.146 356.473 194.36 358.04 189.734C354.944 190.055 351.876 190.603 348.836 191.377C345.815 192.132 342.87 193.133 340 194.379C340.699 191.471 341.048 188.554 341.048 185.628C341.048 184.287 340.972 182.947 340.821 181.606C340.689 180.247 340.472 178.916 340.17 177.613C343.682 178.406 347.241 179.067 350.847 179.596C354.453 180.105 358.125 180.436 361.863 180.587C362.392 179.53 362.939 178.482 363.506 177.443C364.091 176.405 364.705 175.376 365.347 174.356C365.177 176.452 365.063 178.548 365.007 180.644H365.856C368.311 180.644 370.746 180.549 373.163 180.36C375.58 180.172 378.025 179.86 380.498 179.426C380.064 180.238 379.686 181.106 379.365 182.031C379.063 182.956 378.912 184.08 378.912 185.401C378.912 186.157 378.969 186.987 379.082 187.894C379.214 188.781 379.431 189.782 379.733 190.896C377.6 190.405 375.334 190.027 372.937 189.763C370.539 189.479 368.047 189.338 365.46 189.338H365.007C365.158 194.643 365.611 199.911 366.366 205.141C367.14 210.352 368.33 215.581 369.935 220.83ZM421.886 179.879C421.131 180.54 420.414 181.229 419.734 181.946C419.073 182.645 418.441 183.391 417.837 184.184C419.819 184.58 421.688 185.241 423.444 186.166C425.219 187.091 426.767 188.262 428.089 189.678C429.41 191.094 430.458 192.755 431.232 194.662C432.006 196.55 432.393 198.655 432.393 200.978C432.393 203.564 432.006 205.915 431.232 208.029C430.477 210.125 429.42 211.994 428.06 213.637C426.701 215.26 425.096 216.667 423.246 217.856C421.396 219.046 419.385 220.037 417.214 220.83C415.042 221.604 412.758 222.171 410.36 222.529C407.981 222.907 405.574 223.096 403.138 223.096C402.289 223.096 401.401 223.077 400.476 223.039C399.551 223.02 398.654 222.973 397.786 222.897C396.936 222.841 396.134 222.746 395.379 222.614C394.642 222.501 394.038 222.35 393.566 222.161C394.227 221.614 394.831 221.057 395.379 220.49C395.926 219.924 396.445 219.339 396.936 218.734C394.954 218.338 393.075 217.715 391.301 216.865C389.526 216.016 387.968 214.939 386.628 213.637C385.306 212.315 384.258 210.748 383.484 208.936C382.71 207.123 382.323 205.037 382.323 202.677C382.323 199.939 382.767 197.466 383.654 195.257C384.56 193.029 385.788 191.065 387.336 189.366C388.903 187.648 390.734 186.175 392.83 184.948C394.926 183.702 397.182 182.683 399.598 181.89C402.015 181.078 404.526 180.483 407.132 180.105C409.756 179.728 412.352 179.539 414.92 179.539C416.034 179.539 417.157 179.567 418.29 179.624C419.441 179.681 420.64 179.766 421.886 179.879ZM419.678 198.542C419.678 197.447 419.545 196.465 419.281 195.597C419.017 194.709 418.649 193.916 418.177 193.218C417.705 192.519 417.138 191.915 416.477 191.405C415.835 190.896 415.127 190.452 414.353 190.074C414.051 190.754 413.777 191.434 413.532 192.113C413.305 192.793 413.088 193.492 412.881 194.209C411.786 193.831 410.757 193.576 409.794 193.444C408.85 193.293 407.972 193.218 407.16 193.218C405.744 193.218 404.309 193.473 402.855 193.982C401.401 194.473 400.089 195.191 398.919 196.135C397.767 197.079 396.823 198.221 396.087 199.562C395.35 200.902 394.982 202.403 394.982 204.064C394.982 204.914 395.105 205.745 395.35 206.557C395.615 207.35 395.973 208.114 396.427 208.851C396.899 209.587 397.446 210.295 398.069 210.975C398.711 211.635 399.4 212.268 400.136 212.872C400.401 212.079 400.599 211.296 400.731 210.521C400.882 209.729 400.977 208.888 401.014 208.001C402.261 208.643 403.45 209.087 404.583 209.332C405.734 209.577 406.801 209.7 407.783 209.7C409.256 209.7 410.7 209.445 412.116 208.936C413.551 208.426 414.825 207.689 415.939 206.727C417.072 205.764 417.978 204.593 418.658 203.215C419.338 201.837 419.678 200.279 419.678 198.542ZM484.6 181.493C484.6 188.101 483.987 193.982 482.759 199.137C481.532 204.272 479.701 208.605 477.265 212.136C474.848 215.666 471.847 218.357 468.259 220.207C464.672 222.057 460.528 222.982 455.827 222.982C454.656 222.982 453.438 222.888 452.173 222.699C450.908 222.529 449.596 222.274 448.237 221.935C448.501 221.765 448.784 221.576 449.086 221.368C449.351 221.179 449.653 220.953 449.993 220.688C450.333 220.424 450.691 220.122 451.069 219.782C448.86 219.027 446.906 217.79 445.207 216.072C443.526 214.335 442.11 212.221 440.959 209.729C439.826 207.236 438.967 204.414 438.381 201.261C437.796 198.089 437.503 194.69 437.503 191.065C437.503 190.216 437.513 189.442 437.532 188.743C437.57 188.026 437.617 187.318 437.673 186.619C437.749 185.902 437.834 185.165 437.928 184.41C438.023 183.636 438.145 182.768 438.296 181.805C440.222 181.993 442.195 182.06 444.215 182.003C445.084 181.984 446 181.937 446.962 181.861C447.944 181.786 448.945 181.663 449.964 181.493C451.003 181.323 452.041 181.106 453.08 180.842C454.137 180.559 455.166 180.219 456.167 179.822C455.374 181.786 454.684 183.598 454.099 185.26C453.514 186.902 453.023 188.46 452.626 189.933C452.249 191.386 451.956 192.802 451.749 194.181C451.56 195.54 451.465 196.918 451.465 198.315C451.465 201.034 451.824 203.555 452.542 205.877C453.259 208.199 454.354 210.267 455.827 212.079C455.921 211.758 455.997 211.428 456.053 211.088C456.11 210.729 456.167 210.361 456.223 209.983C456.714 210.134 457.205 210.238 457.696 210.295C458.187 210.352 458.668 210.38 459.14 210.38C460.5 210.38 461.717 210.125 462.793 209.615C463.87 209.105 464.804 208.416 465.597 207.548C466.409 206.679 467.089 205.688 467.636 204.574C468.203 203.441 468.656 202.261 468.996 201.034C469.354 199.807 469.609 198.57 469.76 197.324C469.911 196.078 469.987 194.898 469.987 193.784C469.987 192.84 469.874 191.764 469.647 190.556C469.42 189.347 469.118 188.082 468.741 186.761C468.363 185.439 467.919 184.099 467.41 182.739C466.919 181.361 466.4 180.039 465.852 178.774C466.607 179.02 467.447 179.246 468.373 179.454C469.317 179.662 470.298 179.841 471.318 179.992C472.356 180.124 473.414 180.238 474.49 180.332C475.566 180.408 476.633 180.445 477.69 180.445C479.049 180.445 480.324 180.37 481.513 180.219C482.722 180.068 483.751 179.803 484.6 179.426V181.493ZM537.94 219.131C534.938 219.376 532.021 219.924 529.189 220.773C526.376 221.623 523.61 222.784 520.891 224.257C520.683 221.859 520.287 219.527 519.701 217.262C519.116 214.977 518.352 212.74 517.408 210.55C515.538 211.097 513.613 211.371 511.63 211.371C510.648 211.371 509.695 211.314 508.77 211.201C508.808 213.033 508.855 214.864 508.911 216.695C508.968 218.508 509.044 220.33 509.138 222.161C508.609 222.104 508.071 222.048 507.524 221.991C506.976 221.953 506.41 221.935 505.824 221.935C503.653 221.935 501.359 222.18 498.943 222.671C496.545 223.181 494.024 223.898 491.381 224.823C492.438 221.708 493.345 218.583 494.1 215.449C494.874 212.315 495.497 209.143 495.969 205.934C494.477 204.914 493.213 203.895 492.174 202.875C491.155 201.855 490.39 201.015 489.88 200.354C490.9 200.675 491.957 200.968 493.052 201.232C494.166 201.497 495.289 201.742 496.422 201.969C496.573 200.553 496.686 199.146 496.762 197.749C496.838 196.352 496.875 194.936 496.875 193.501V191.83C495.724 192.208 494.581 192.614 493.449 193.048C492.316 193.482 491.221 193.964 490.163 194.492C490.447 193.435 490.664 192.406 490.815 191.405C490.966 190.405 491.041 189.423 491.041 188.46C491.041 186.817 490.834 185.241 490.418 183.73C490.003 182.22 489.418 180.766 488.662 179.369C493.061 178.689 497.007 178.227 500.5 177.981C504.012 177.736 507.137 177.613 509.874 177.613C511.158 177.613 512.612 177.651 514.236 177.727C515.878 177.783 517.559 177.934 519.277 178.18C521.014 178.406 522.732 178.746 524.431 179.199C526.13 179.652 527.688 180.285 529.104 181.097C530.52 181.89 531.728 182.881 532.729 184.07C533.748 185.241 534.428 186.666 534.768 188.347V188.46C535.259 188.177 535.731 187.884 536.184 187.582C536.656 187.261 537.128 186.912 537.6 186.534C537.336 188.252 536.911 189.961 536.325 191.66C535.74 193.359 535.004 195.002 534.116 196.588C533.248 198.174 532.238 199.684 531.086 201.119C529.953 202.554 528.707 203.866 527.348 205.056C530.237 210.153 533.767 214.845 537.94 219.131ZM516.615 188.46C515.614 188.46 514.5 188.507 513.273 188.602C512.046 188.696 510.648 188.847 509.081 189.055C508.987 191.32 508.911 193.576 508.855 195.823C508.798 198.07 508.77 200.317 508.77 202.563C510.242 202.375 511.621 202.054 512.905 201.601C514.188 201.147 515.321 200.524 516.303 199.731C517.304 198.938 518.125 197.966 518.767 196.814C519.428 195.644 519.852 194.256 520.041 192.651C520.853 192.5 521.656 192.359 522.449 192.227C523.26 192.094 524.082 191.943 524.912 191.773V191.717C524.478 191.188 524.025 190.726 523.553 190.329C523.081 189.914 522.533 189.574 521.91 189.31C521.287 189.026 520.551 188.819 519.701 188.687C518.852 188.535 517.823 188.46 516.615 188.46ZM615.704 207.661C614.835 208.152 613.957 208.615 613.07 209.049C612.183 209.483 611.286 209.889 610.38 210.267C611.361 212.249 612.4 214.156 613.495 215.987C614.59 217.8 615.751 219.584 616.978 221.34C613.825 221.34 610.823 221.651 607.972 222.274C605.14 222.916 602.346 223.926 599.59 225.305C599.741 224.814 599.845 224.276 599.901 223.69C599.958 223.124 599.986 222.52 599.986 221.878C599.986 220.745 599.873 219.499 599.646 218.14C599.439 216.78 599.127 215.336 598.712 213.807C597.711 213.958 596.71 214.071 595.71 214.146C594.728 214.222 593.756 214.26 592.793 214.26C591.131 214.26 589.517 214.128 587.95 213.863C586.383 213.599 584.863 213.193 583.39 212.646C583.051 214.401 582.73 216.176 582.428 217.97C582.125 219.763 581.833 221.604 581.55 223.492C580.587 222.964 579.52 222.492 578.349 222.076C577.33 221.717 576.122 221.387 574.724 221.085C573.327 220.802 571.77 220.66 570.052 220.66C568.692 220.66 567.257 220.783 565.747 221.028C564.236 221.293 562.679 221.727 561.074 222.331C562.547 220.726 563.915 219.112 565.18 217.488C566.464 215.846 567.625 214.269 568.664 212.759C569.702 211.229 570.627 209.804 571.439 208.482C572.251 207.161 572.931 206.019 573.478 205.056C572.931 204.3 572.412 203.489 571.921 202.62C571.43 201.752 570.986 200.817 570.59 199.816C571.345 200.232 572.1 200.619 572.855 200.978C573.629 201.317 574.394 201.648 575.149 201.969V201.912C576.169 199.816 577.235 197.768 578.349 195.767C579.463 193.765 580.662 191.83 581.946 189.961C581.682 189.319 581.351 188.592 580.955 187.78C580.577 186.968 580.162 186.119 579.709 185.231C579.256 184.344 578.774 183.457 578.264 182.569C577.774 181.682 577.283 180.842 576.792 180.049C578.661 180.577 580.568 181.012 582.512 181.352C584.476 181.673 586.496 181.88 588.573 181.975C589.668 180.917 590.801 179.945 591.971 179.058C593.142 178.17 594.379 177.377 595.681 176.679C595.228 177.528 594.785 178.387 594.35 179.256C593.916 180.124 593.491 181.012 593.076 181.918C594.19 181.861 595.304 181.757 596.418 181.606C597.532 181.455 598.646 181.267 599.76 181.04C600.571 184.269 601.459 187.431 602.422 190.527C603.385 193.624 604.451 196.663 605.622 199.646C606.585 199.099 607.519 198.514 608.426 197.891C609.332 197.249 610.248 196.578 611.173 195.88C611.758 198.127 612.419 200.222 613.155 202.167C613.891 204.112 614.741 205.943 615.704 207.661ZM595.228 203.838C593.548 199.798 591.537 195.634 589.196 191.349C588.479 193.407 587.79 195.521 587.129 197.692C586.487 199.845 585.864 202.101 585.26 204.461C585.75 204.499 586.241 204.527 586.732 204.546C587.223 204.565 587.714 204.574 588.205 204.574C589.394 204.574 590.565 204.518 591.717 204.404C592.887 204.291 594.058 204.102 595.228 203.838ZM672.215 181.975C669.497 185.373 667.429 188.998 666.013 192.85C664.616 196.701 663.918 200.845 663.918 205.282C663.918 207.567 664.106 209.917 664.484 212.334C664.862 214.732 665.447 217.215 666.24 219.782C664.673 219.839 663.077 219.99 661.454 220.235C660.057 220.443 658.518 220.773 656.837 221.227C655.157 221.68 653.515 222.322 651.91 223.152C651.362 221.548 650.758 220.009 650.097 218.536C649.436 217.045 648.757 215.638 648.058 214.316C647.36 212.995 646.652 211.758 645.934 210.606C645.236 209.455 644.565 208.397 643.923 207.435C642.394 205.188 640.846 203.177 639.279 201.402C639.26 201.383 639.232 201.346 639.194 201.289C639.156 201.251 639.118 201.214 639.081 201.176C639.043 201.119 639.005 201.053 638.967 200.978C639.081 202.62 639.137 204.225 639.137 205.792C639.137 211.569 638.391 217.262 636.9 222.869C633.615 221.699 630.226 221.113 626.733 221.113C625.619 221.113 624.486 221.17 623.335 221.283C622.202 221.396 621.059 221.576 619.908 221.821C622.608 218.461 624.656 214.854 626.053 211.003C627.469 207.151 628.177 202.96 628.177 198.429C628.177 196.918 628.092 195.37 627.922 193.784C627.771 192.198 627.535 190.575 627.214 188.913C625.987 187.894 624.666 186.855 623.25 185.798C621.834 184.741 620.314 183.655 618.69 182.541C620.446 182.786 622.126 182.89 623.731 182.853C625.355 182.815 626.96 182.635 628.545 182.314C630.131 181.975 631.736 181.503 633.36 180.898C634.984 180.294 636.683 179.549 638.458 178.661L653.581 205.849C653.316 204.168 653.118 202.516 652.986 200.893C652.854 199.269 652.788 197.655 652.788 196.05C652.788 192.557 653.128 189.187 653.807 185.939C654.506 182.692 655.61 179.567 657.121 176.565C661.633 179.756 666.665 181.559 672.215 181.975ZM721.534 197.579C721.798 199.845 721.685 202.054 721.194 204.206C720.722 206.34 719.938 208.36 718.843 210.267C717.767 212.174 716.417 213.92 714.793 215.506C713.188 217.092 711.395 218.461 709.412 219.612C707.449 220.764 705.334 221.661 703.069 222.303C700.822 222.945 698.509 223.266 696.13 223.266C694.563 223.266 692.949 223.067 691.287 222.671C689.645 222.293 688.049 221.585 686.501 220.547C684.802 220.755 683.046 221.076 681.234 221.51C679.44 221.944 677.58 222.51 675.655 223.209C677.354 218.13 678.685 213.033 679.648 207.916C680.63 202.781 681.139 197.589 681.177 192.34C680.516 192.642 679.846 192.991 679.166 193.388C678.487 193.765 677.816 194.19 677.156 194.662C677.231 194.171 677.278 193.699 677.297 193.246C677.335 192.774 677.354 192.302 677.354 191.83C677.354 189.527 677.014 187.355 676.334 185.316C675.673 183.258 674.692 181.314 673.389 179.482C674.088 179.256 674.918 179.048 675.881 178.859C676.844 178.671 677.864 178.501 678.94 178.35C680.035 178.199 681.149 178.066 682.282 177.953C683.433 177.84 684.547 177.745 685.623 177.67C686.7 177.594 687.71 177.538 688.654 177.5C689.598 177.462 690.409 177.443 691.089 177.443C693.883 177.443 696.517 177.679 698.991 178.151C701.464 178.604 703.739 179.256 705.816 180.105C707.893 180.936 709.743 181.946 711.367 183.136C713.009 184.306 714.397 185.609 715.53 187.044C716.662 188.46 717.531 189.989 718.135 191.632C718.739 193.274 719.041 194.983 719.041 196.758C719.041 197.041 719.041 197.334 719.041 197.636C719.041 197.919 719.022 198.202 718.985 198.485C719.457 198.334 719.9 198.193 720.316 198.061C720.731 197.91 721.137 197.749 721.534 197.579ZM708.591 199.901C708.232 198.712 707.713 197.655 707.034 196.729C706.373 195.804 705.608 194.993 704.74 194.294C703.89 193.595 702.965 193.01 701.964 192.538C700.982 192.066 699.982 191.67 698.962 191.349C697.962 191.028 696.97 190.792 695.989 190.641C695.007 190.471 694.091 190.348 693.242 190.272C693.128 194.898 693.072 199.495 693.072 204.064C693.072 208.256 693.128 212.428 693.242 216.582C695.092 216.035 696.819 215.279 698.424 214.316C700.048 213.354 701.426 212.183 702.559 210.805C703.711 209.408 704.57 207.803 705.136 205.99C705.702 204.178 705.872 202.167 705.646 199.958C706.08 199.958 706.543 199.958 707.034 199.958C707.524 199.958 708.044 199.939 708.591 199.901ZM779.36 220.83C778.983 220.83 778.605 220.821 778.227 220.802C777.85 220.783 777.472 220.773 777.095 220.773C774.621 220.773 772.214 220.943 769.873 221.283C767.532 221.642 765.238 222.208 762.991 222.982C762.953 222.435 762.934 221.868 762.934 221.283C762.934 220.717 762.934 220.16 762.934 219.612C762.934 214.213 763.293 209.039 764.011 204.093C764.747 199.146 765.899 194.36 767.466 189.734C764.369 190.055 761.301 190.603 758.262 191.377C755.241 192.132 752.295 193.133 749.426 194.379C750.124 191.471 750.473 188.554 750.473 185.628C750.473 184.287 750.398 182.947 750.247 181.606C750.115 180.247 749.898 178.916 749.596 177.613C753.107 178.406 756.666 179.067 760.272 179.596C763.878 180.105 767.551 180.436 771.289 180.587C771.818 179.53 772.365 178.482 772.931 177.443C773.517 176.405 774.13 175.376 774.772 174.356C774.602 176.452 774.489 178.548 774.432 180.644H775.282C777.737 180.644 780.172 180.549 782.589 180.36C785.005 180.172 787.45 179.86 789.924 179.426C789.489 180.238 789.112 181.106 788.791 182.031C788.489 182.956 788.338 184.08 788.338 185.401C788.338 186.157 788.394 186.987 788.508 187.894C788.64 188.781 788.857 189.782 789.159 190.896C787.026 190.405 784.76 190.027 782.362 189.763C779.964 189.479 777.472 189.338 774.886 189.338H774.432C774.584 194.643 775.037 199.911 775.792 205.141C776.566 210.352 777.755 215.581 779.36 220.83ZM840.969 219.131C837.967 219.376 835.05 219.924 832.218 220.773C829.405 221.623 826.639 222.784 823.921 224.257C823.713 221.859 823.316 219.527 822.731 217.262C822.146 214.977 821.381 212.74 820.437 210.55C818.568 211.097 816.642 211.371 814.66 211.371C813.678 211.371 812.725 211.314 811.799 211.201C811.837 213.033 811.884 214.864 811.941 216.695C811.998 218.508 812.073 220.33 812.168 222.161C811.639 222.104 811.101 222.048 810.553 221.991C810.006 221.953 809.439 221.935 808.854 221.935C806.683 221.935 804.389 222.18 801.972 222.671C799.574 223.181 797.054 223.898 794.411 224.823C795.468 221.708 796.374 218.583 797.129 215.449C797.904 212.315 798.527 209.143 798.999 205.934C797.507 204.914 796.242 203.895 795.204 202.875C794.184 201.855 793.42 201.015 792.91 200.354C793.929 200.675 794.987 200.968 796.082 201.232C797.196 201.497 798.319 201.742 799.452 201.969C799.603 200.553 799.716 199.146 799.792 197.749C799.867 196.352 799.905 194.936 799.905 193.501V191.83C798.753 192.208 797.611 192.614 796.478 193.048C795.345 193.482 794.25 193.964 793.193 194.492C793.476 193.435 793.693 192.406 793.844 191.405C793.995 190.405 794.071 189.423 794.071 188.46C794.071 186.817 793.863 185.241 793.448 183.73C793.032 182.22 792.447 180.766 791.692 179.369C796.091 178.689 800.037 178.227 803.53 177.981C807.042 177.736 810.166 177.613 812.904 177.613C814.188 177.613 815.642 177.651 817.265 177.727C818.908 177.783 820.588 177.934 822.306 178.18C824.043 178.406 825.761 178.746 827.461 179.199C829.16 179.652 830.717 180.285 832.133 181.097C833.549 181.89 834.758 182.881 835.758 184.07C836.778 185.241 837.458 186.666 837.797 188.347V188.46C838.288 188.177 838.76 187.884 839.213 187.582C839.685 187.261 840.157 186.912 840.629 186.534C840.365 188.252 839.94 189.961 839.355 191.66C838.77 193.359 838.033 195.002 837.146 196.588C836.278 198.174 835.268 199.684 834.116 201.119C832.983 202.554 831.737 203.866 830.378 205.056C833.266 210.153 836.797 214.845 840.969 219.131ZM819.644 188.46C818.643 188.46 817.53 188.507 816.302 188.602C815.075 188.696 813.678 188.847 812.111 189.055C812.017 191.32 811.941 193.576 811.884 195.823C811.828 198.07 811.799 200.317 811.799 202.563C813.272 202.375 814.65 202.054 815.934 201.601C817.218 201.147 818.351 200.524 819.333 199.731C820.333 198.938 821.155 197.966 821.796 196.814C822.457 195.644 822.882 194.256 823.071 192.651C823.883 192.5 824.685 192.359 825.478 192.227C826.29 192.094 827.111 191.943 827.942 191.773V191.717C827.508 191.188 827.055 190.726 826.583 190.329C826.111 189.914 825.563 189.574 824.94 189.31C824.317 189.026 823.581 188.819 822.731 188.687C821.881 188.535 820.852 188.46 819.644 188.46ZM893.771 207.661C892.902 208.152 892.024 208.615 891.137 209.049C890.25 209.483 889.353 209.889 888.447 210.267C889.428 212.249 890.467 214.156 891.562 215.987C892.657 217.8 893.818 219.584 895.045 221.34C891.892 221.34 888.89 221.651 886.039 222.274C883.207 222.916 880.413 223.926 877.657 225.305C877.808 224.814 877.911 224.276 877.968 223.69C878.025 223.124 878.053 222.52 878.053 221.878C878.053 220.745 877.94 219.499 877.713 218.14C877.506 216.78 877.194 215.336 876.779 213.807C875.778 213.958 874.777 214.071 873.777 214.146C872.795 214.222 871.823 214.26 870.86 214.26C869.198 214.26 867.584 214.128 866.017 213.863C864.45 213.599 862.93 213.193 861.457 212.646C861.118 214.401 860.797 216.176 860.495 217.97C860.192 219.763 859.9 221.604 859.617 223.492C858.654 222.964 857.587 222.492 856.416 222.076C855.397 221.717 854.189 221.387 852.791 221.085C851.394 220.802 849.837 220.66 848.119 220.66C846.759 220.66 845.324 220.783 843.814 221.028C842.303 221.293 840.746 221.727 839.141 222.331C840.614 220.726 841.982 219.112 843.247 217.488C844.531 215.846 845.692 214.269 846.731 212.759C847.769 211.229 848.694 209.804 849.506 208.482C850.318 207.161 850.998 206.019 851.545 205.056C850.998 204.3 850.479 203.489 849.988 202.62C849.497 201.752 849.053 200.817 848.657 199.816C849.412 200.232 850.167 200.619 850.922 200.978C851.696 201.317 852.461 201.648 853.216 201.969V201.912C854.236 199.816 855.302 197.768 856.416 195.767C857.53 193.765 858.729 191.83 860.013 189.961C859.749 189.319 859.418 188.592 859.022 187.78C858.644 186.968 858.229 186.119 857.776 185.231C857.323 184.344 856.841 183.457 856.331 182.569C855.841 181.682 855.35 180.842 854.859 180.049C856.728 180.577 858.635 181.012 860.579 181.352C862.543 181.673 864.563 181.88 866.64 181.975C867.735 180.917 868.868 179.945 870.038 179.058C871.209 178.17 872.446 177.377 873.748 176.679C873.295 177.528 872.852 178.387 872.417 179.256C871.983 180.124 871.558 181.012 871.143 181.918C872.257 181.861 873.371 181.757 874.485 181.606C875.599 181.455 876.713 181.267 877.827 181.04C878.638 184.269 879.526 187.431 880.489 190.527C881.452 193.624 882.518 196.663 883.689 199.646C884.652 199.099 885.586 198.514 886.493 197.891C887.399 197.249 888.314 196.578 889.24 195.88C889.825 198.127 890.486 200.222 891.222 202.167C891.958 204.112 892.808 205.943 893.771 207.661ZM873.295 203.838C871.615 199.798 869.604 195.634 867.263 191.349C866.546 193.407 865.856 195.521 865.196 197.692C864.554 199.845 863.931 202.101 863.327 204.461C863.817 204.499 864.308 204.527 864.799 204.546C865.29 204.565 865.781 204.574 866.272 204.574C867.461 204.574 868.632 204.518 869.784 204.404C870.954 204.291 872.125 204.102 873.295 203.838ZM943.712 180.813C941.616 183.74 939.681 186.77 937.906 189.904C936.132 193.038 934.536 196.257 933.12 199.562C931.704 202.866 930.486 206.255 929.467 209.729C928.447 213.184 927.645 216.705 927.06 220.292C925.247 220.065 923.491 219.952 921.792 219.952C919.961 219.952 918.139 220.084 916.326 220.349C914.514 220.613 912.701 221 910.889 221.51C910.19 218.319 909.293 214.987 908.198 211.513C907.103 208.02 905.829 204.546 904.375 201.091C902.94 197.617 901.335 194.247 899.561 190.98C897.786 187.695 895.851 184.674 893.755 181.918C895.794 182.145 897.909 182.258 900.099 182.258C902.421 182.258 904.706 182.078 906.952 181.72C909.218 181.342 911.295 180.691 913.183 179.766C913.39 182.201 913.617 184.571 913.862 186.874C914.127 189.159 914.457 191.405 914.854 193.614C915.25 195.823 915.75 198.004 916.355 200.156C916.978 202.309 917.742 204.461 918.649 206.613C920.707 202.346 922.189 198.051 923.095 193.728C924.001 189.385 924.454 184.977 924.454 180.502C927.947 181.087 931.44 181.38 934.933 181.38C936.405 181.38 937.869 181.333 939.322 181.238C940.776 181.125 942.239 180.983 943.712 180.813ZM963.35 220.887C961.802 220.906 960.264 220.915 958.734 220.915C957.224 220.896 955.713 220.915 954.203 220.972C952.711 221.028 951.229 221.151 949.757 221.34C948.284 221.529 946.821 221.821 945.367 222.218C946.67 217.838 947.652 213.495 948.312 209.19C948.992 204.867 949.332 200.524 949.332 196.163C949.332 194.181 949.256 192.208 949.105 190.244C948.973 188.262 948.756 186.279 948.454 184.297L944.093 183.759C944.772 183.551 945.452 183.353 946.132 183.164C946.83 182.975 947.51 182.786 948.171 182.598C948.076 182.069 947.982 181.55 947.888 181.04C947.812 180.511 947.708 179.973 947.576 179.426C948.709 179.766 949.832 180.087 950.946 180.389C952.06 180.691 953.202 180.946 954.373 181.153C958.017 180.398 961.651 179.822 965.276 179.426C968.92 179.029 972.611 178.831 976.349 178.831C977.954 178.831 979.559 178.869 981.164 178.944C982.769 179.02 984.392 179.133 986.035 179.284C985.11 182.739 984.647 186.317 984.647 190.018C984.647 191.377 984.704 192.717 984.817 194.039C977.681 191.018 970.317 188.639 962.727 186.902C962.557 188.564 962.416 190.235 962.303 191.915C962.189 193.595 962.114 195.266 962.076 196.928C964.002 196.493 965.918 196.163 967.825 195.937C969.732 195.71 971.648 195.578 973.574 195.54C973.14 197.315 972.923 199.071 972.923 200.808C972.923 201.506 972.951 202.205 973.008 202.903C973.083 203.602 973.196 204.3 973.348 204.999C971.516 204.112 969.656 203.319 967.768 202.62C965.88 201.922 963.964 201.299 962.019 200.751C962.019 202.752 962.057 204.82 962.133 206.953C962.227 209.087 962.369 211.239 962.557 213.41C969.826 212.428 977.246 210.625 984.817 208.001C984.591 209.417 984.411 210.814 984.279 212.192C984.147 213.571 984.081 214.958 984.081 216.355C984.081 217.639 984.138 218.914 984.251 220.179C984.364 221.444 984.553 222.718 984.817 224.002C981.249 223.096 977.681 222.312 974.112 221.651C970.544 221.009 966.919 220.5 963.237 220.122C963.237 220.235 963.247 220.368 963.266 220.519C963.284 220.651 963.313 220.773 963.35 220.887ZM1030.11 221.227C1026.9 220.736 1023.7 220.368 1020.51 220.122C1017.34 219.858 1014.12 219.726 1010.86 219.726C1007.21 219.726 1003.56 219.886 999.896 220.207C996.252 220.528 992.58 221.047 988.88 221.765C989.805 221.047 990.73 220.349 991.655 219.669C992.599 218.989 993.571 218.347 994.572 217.743C995.006 215.175 995.327 212.646 995.535 210.153C995.742 207.661 995.846 205.15 995.846 202.62C995.846 198.863 995.629 195.153 995.195 191.49C994.761 187.809 994.166 184.146 993.411 180.502C993.807 180.54 994.213 180.568 994.629 180.587C995.063 180.587 995.488 180.587 995.903 180.587C998.301 180.587 1000.65 180.436 1002.95 180.134C1005.26 179.813 1007.56 179.36 1009.86 178.774C1009.86 184.231 1009.59 189.678 1009.04 195.115C1008.51 200.534 1007.63 205.952 1006.38 211.371C1009.91 209.823 1013.54 208.501 1017.26 207.406C1020.98 206.311 1024.84 205.433 1028.84 204.772C1028.61 206.679 1028.5 208.549 1028.5 210.38C1028.5 212.211 1028.62 214.033 1028.87 215.846C1029.11 217.658 1029.53 219.452 1030.11 221.227ZM1077.62 201.629C1077.68 202.044 1077.7 202.45 1077.7 202.847C1077.72 203.243 1077.73 203.63 1077.73 204.008C1077.73 205.99 1077.42 207.85 1076.8 209.587C1076.19 211.324 1075.35 212.919 1074.28 214.373C1073.2 215.827 1071.93 217.13 1070.45 218.281C1069 219.433 1067.41 220.405 1065.7 221.198C1063.98 221.991 1062.18 222.595 1060.29 223.011C1058.42 223.445 1056.54 223.662 1054.65 223.662C1052.88 223.662 1051.17 223.587 1049.53 223.436C1047.88 223.285 1046.33 223.209 1044.85 223.209C1043.72 223.209 1042.65 223.285 1041.65 223.436C1040.65 223.605 1039.73 223.936 1038.88 224.427C1038.18 221.84 1037.43 219.499 1036.64 217.403C1035.87 215.289 1035.15 213.486 1034.49 211.994C1033.71 210.257 1032.94 208.7 1032.17 207.321C1034.41 208.492 1036.66 209.417 1038.91 210.097C1041.17 210.776 1043.32 211.305 1045.36 211.683C1047.4 212.041 1049.26 212.277 1050.94 212.391C1052.62 212.485 1054.02 212.532 1055.13 212.532C1056.38 212.532 1057.63 212.457 1058.9 212.306C1060.16 212.155 1061.44 211.919 1062.72 211.598C1062.4 211.163 1062.07 210.776 1061.73 210.437C1061.39 210.097 1061.08 209.823 1060.8 209.615C1060.46 209.37 1060.13 209.162 1059.81 208.992C1059.26 208.728 1058.51 208.473 1057.57 208.228C1056.64 207.963 1055.61 207.68 1054.45 207.378C1053.32 207.076 1052.1 206.745 1050.8 206.387C1049.52 206.028 1048.23 205.613 1046.95 205.141C1045.68 204.669 1044.47 204.131 1043.3 203.526C1042.14 202.922 1041.11 202.233 1040.21 201.459C1039.49 200.836 1038.9 200.166 1038.42 199.448C1037.95 198.712 1037.57 197.966 1037.29 197.211C1037.03 196.437 1036.83 195.672 1036.7 194.917C1036.58 194.143 1036.52 193.407 1036.5 192.708C1035.84 192.972 1035.24 193.227 1034.71 193.473C1034.19 193.718 1033.73 193.926 1033.35 194.096L1032.22 194.662C1032.9 192.623 1033.85 190.82 1035.05 189.253C1036.28 187.686 1037.65 186.326 1039.16 185.175C1040.69 184.023 1042.31 183.051 1044.03 182.258C1045.77 181.465 1047.49 180.813 1049.19 180.304C1053.15 179.114 1057.45 178.435 1062.07 178.265C1063.51 178.265 1065.04 178.208 1066.66 178.095C1068.06 178 1069.65 177.859 1071.45 177.67C1073.24 177.462 1075.13 177.17 1077.11 176.792C1076.51 177.698 1076.01 178.68 1075.64 179.737C1075.28 180.795 1075 181.861 1074.79 182.938C1074.58 184.014 1074.44 185.08 1074.36 186.138C1074.29 187.176 1074.25 188.13 1074.25 188.998C1074.25 189.583 1074.26 190.112 1074.28 190.584C1074.3 191.056 1074.32 191.462 1074.36 191.802C1074.4 192.198 1074.45 192.557 1074.5 192.878C1071.2 191.386 1067.98 190.348 1064.85 189.763C1061.71 189.159 1058.68 188.856 1055.76 188.856C1054.76 188.856 1053.8 188.894 1052.9 188.97C1051.99 189.026 1051.08 189.111 1050.18 189.225C1050.38 190.131 1050.75 190.886 1051.28 191.49C1051.83 192.094 1052.38 192.585 1052.92 192.963C1053.57 193.397 1054.26 193.737 1054.99 193.982C1056.43 194.436 1057.98 194.993 1059.66 195.653C1061.34 196.295 1063.03 197.098 1064.71 198.061C1066.39 199.023 1068 200.156 1069.55 201.459C1071.1 202.762 1072.46 204.272 1073.63 205.99C1074.34 205.386 1075.04 204.725 1075.72 204.008C1076.4 203.271 1077.03 202.479 1077.62 201.629Z" fill="#FB015B"/>
</svg>
